<svg xmlns="http://www.w3.org/2000/svg" xmlns:xlink="http://www.w3.org/1999/xlink" width="500" zoomAndPan="magnify" viewBox="0 0 375 374.999991" height="500" preserveAspectRatio="xMidYMid meet" version="1.0"><defs><clipPath id="9f5a1c7f25"><path d="M 10.550781 10.550781 L 364.550781 10.550781 L 364.550781 364.550781 L 10.550781 364.550781 Z M 10.550781 10.550781 " clip-rule="nonzero"/></clipPath><clipPath id="bbfcc979e0"><path d="M 76 206 L 163 206 L 163 272.523438 L 76 272.523438 Z M 76 206 " clip-rule="nonzero"/></clipPath><clipPath id="6c727338a2"><path d="M 148 182 L 202 182 L 202 272.523438 L 148 272.523438 Z M 148 182 " clip-rule="nonzero"/></clipPath><clipPath id="92f0230baa"><path d="M 73 102.664062 L 158 102.664062 L 158 184 L 73 184 Z M 73 102.664062 " clip-rule="nonzero"/></clipPath><clipPath id="a434794800"><path d="M 69 102.664062 L 162 102.664062 L 162 188 L 69 188 Z M 69 102.664062 " clip-rule="nonzero"/></clipPath><clipPath id="e5de06aa01"><path d="M 212 206 L 299 206 L 299 272.523438 L 212 272.523438 Z M 212 206 " clip-rule="nonzero"/></clipPath><clipPath id="47e2d2f745"><path d="M 173 182 L 227 182 L 227 272.523438 L 173 272.523438 Z M 173 182 " clip-rule="nonzero"/></clipPath><clipPath id="881316f1d4"><path d="M 217 102.664062 L 302 102.664062 L 302 184 L 217 184 Z M 217 102.664062 " clip-rule="nonzero"/></clipPath><clipPath id="57f4869786"><path d="M 213 102.664062 L 306 102.664062 L 306 188 L 213 188 Z M 213 102.664062 " clip-rule="nonzero"/></clipPath></defs><g clip-path="url(#9f5a1c7f25)"><path fill="#260801" d="M 322.140625 66.691406 C 315.21875 54.707031 302.664062 48 289.75 47.988281 L 289.753906 47.988281 C 276.839844 47.976562 264.285156 41.269531 257.363281 29.28125 C 247.035156 11.394531 224.164062 5.265625 206.273438 15.59375 L 206.273438 15.597656 L 206.273438 15.585938 C 195.164062 21.988281 181.0625 22.492188 169.125 15.726562 C 163.5625 12.449219 157.085938 10.570312 150.167969 10.570312 C 136.324219 10.570312 124.242188 18.089844 117.773438 29.269531 L 117.773438 29.265625 C 111.304688 40.441406 99.21875 47.964844 85.378906 47.964844 C 64.722656 47.964844 47.980469 64.707031 47.980469 85.363281 L 47.980469 85.367188 L 47.96875 85.363281 C 47.957031 98.179688 41.351562 110.636719 29.539062 117.59375 C 23.914062 120.769531 19.039062 125.441406 15.578125 131.441406 C 8.65625 143.429688 9.125 157.652344 15.574219 168.84375 C 22.015625 180.03125 22.488281 194.257812 15.566406 206.246094 C 5.238281 224.132812 11.367188 247.003906 29.253906 257.332031 L 29.257812 257.335938 L 29.25 257.339844 C 40.429688 263.804688 47.945312 275.890625 47.945312 289.734375 C 47.945312 310.390625 64.691406 327.132812 85.34375 327.132812 C 99.1875 327.132812 111.269531 334.652344 117.738281 345.832031 C 124.207031 357.003906 136.292969 364.527344 150.132812 364.527344 C 157.054688 364.527344 163.53125 362.644531 169.089844 359.371094 C 181.023438 352.605469 195.128906 353.113281 206.238281 359.515625 L 206.238281 359.503906 L 206.238281 359.507812 C 224.128906 369.832031 247 363.703125 257.332031 345.816406 C 264.25 333.832031 276.804688 327.125 289.71875 327.113281 L 289.714844 327.109375 C 302.628906 327.097656 315.1875 320.390625 322.105469 308.40625 C 325.511719 302.503906 327.128906 296.058594 327.121094 289.703125 L 327.125 289.707031 C 327.136719 277.25 333.378906 265.125 344.582031 258.074219 C 350.617188 254.898438 355.859375 250.035156 359.519531 243.691406 C 366.441406 231.699219 365.972656 217.472656 359.523438 206.285156 L 359.527344 206.285156 C 353.082031 195.097656 352.609375 180.871094 359.53125 168.882812 C 369.859375 150.996094 363.730469 128.125 345.839844 117.796875 L 345.839844 117.792969 L 345.847656 117.789062 C 334.757812 111.375 327.269531 99.429688 327.152344 85.722656 C 327.21875 79.257812 325.605469 72.695312 322.140625 66.691406 " fill-opacity="1" fill-rule="nonzero"/></g><path fill="#ffffff" d="M 82.425781 217.867188 C 106.269531 206.726562 140.570312 200.726562 161.71875 188.125 C 194.308594 168.710938 208.675781 128.171875 153.109375 104.265625 C 171.59375 128.128906 165.984375 156.972656 137.410156 170.648438 C 92.367188 192.195312 -0.00390625 208.347656 65.59375 268.535156 C 48.863281 244.105469 57.78125 229.371094 82.425781 217.867188 Z M 82.425781 217.867188 " fill-opacity="1" fill-rule="evenodd"/><g clip-path="url(#bbfcc979e0)"><path fill="#ffffff" d="M 126.464844 257.320312 C 125.421875 256.347656 124.636719 255.074219 124.117188 253.507812 C 123.59375 251.945312 123.261719 249.972656 123.101562 247.582031 C 122.957031 245.207031 122.882812 242.152344 122.882812 238.425781 L 122.882812 206.929688 C 121.667969 207.304688 120.433594 207.695312 119.214844 208.074219 C 111.5625 210.464844 103.675781 212.855469 96.023438 215.679688 C 96.007812 222.632812 95.980469 229.097656 95.921875 235.066406 C 95.847656 243.410156 95.515625 249.972656 94.921875 254.742188 C 94.472656 258.03125 93.832031 260.78125 93.007812 263.015625 C 92.195312 265.257812 90.660156 266.59375 88.425781 267.042969 C 87.382812 267.34375 86.195312 267.5625 84.84375 267.722656 C 83.496094 267.867188 82.003906 267.9375 80.367188 267.9375 C 77.988281 267.9375 76.785156 268.535156 76.785156 269.722656 C 76.785156 271.214844 78.277344 271.96875 81.265625 271.96875 C 83.496094 271.96875 86.003906 271.894531 88.757812 271.734375 C 91.511719 271.589844 94.167969 271.519531 96.703125 271.519531 C 99.386719 271.375 101.847656 271.300781 104.082031 271.300781 L 109.460938 271.300781 C 110.621094 271.300781 112.113281 271.316406 113.984375 271.34375 C 114.75 271.359375 115.605469 271.386719 116.503906 271.402344 C 119.5625 271.476562 122.8125 271.664062 126.234375 271.96875 C 127.132812 272.011719 128.015625 272.039062 128.871094 272.082031 C 141.554688 272.097656 154.617188 269.765625 162.386719 258.363281 C 160.210938 259.726562 157.9375 260.722656 155.542969 261.347656 C 152.414062 262.160156 149.585938 262.578125 147.050781 262.578125 C 144.511719 262.578125 141.902344 262.417969 139.222656 262.128906 C 136.523438 261.824219 133.699219 261.085938 130.710938 259.882812 C 128.929688 259.144531 127.507812 258.289062 126.464844 257.320312 Z M 126.464844 257.320312 " fill-opacity="1" fill-rule="evenodd"/></g><g clip-path="url(#6c727338a2)"><path fill="#ffffff" d="M 173.273438 242.601562 C 170.113281 259.625 160.199219 268.257812 148.558594 272.429688 C 156.09375 271.9375 162.777344 270.589844 168.636719 268.386719 C 176.171875 265.550781 182.363281 261.824219 187.21875 257.203125 C 192.0625 252.582031 195.671875 247.367188 198.0625 241.554688 C 200.457031 235.730469 201.644531 229.851562 201.644531 223.878906 C 201.644531 217.332031 200.382812 211.433594 197.847656 206.21875 C 195.308594 201.003906 192.0625 196.382812 188.105469 192.355469 C 184.191406 188.355469 179.855469 184.992188 175.128906 182.242188 C 171.417969 185.53125 167.402344 188.425781 163.328125 190.847656 C 161.546875 191.917969 159.707031 192.917969 157.820312 193.859375 C 159.71875 195.644531 161.429688 197.527344 162.9375 199.511719 C 165.765625 203.234375 168.011719 207.074219 169.648438 211.027344 C 171.289062 214.96875 172.449219 218.925781 173.113281 222.878906 C 173.78125 226.835938 174.128906 230.515625 174.128906 233.949219 C 174.128906 237.152344 173.839844 240.035156 173.273438 242.601562 Z M 173.273438 242.601562 " fill-opacity="1" fill-rule="evenodd"/></g><g clip-path="url(#92f0230baa)"><path fill="#ffffff" d="M 131.160156 108.726562 C 133.667969 108.207031 136.523438 108.191406 139.453125 108.769531 C 146.195312 109.929688 153.339844 113.4375 157.546875 117.839844 C 153.820312 109.015625 146.339844 102.902344 136.089844 102.902344 C 132.203125 102.902344 128.074219 103.019531 123.667969 103.234375 C 119.257812 103.46875 114.300781 103.570312 108.792969 103.570312 C 107.589844 103.570312 105.90625 103.539062 103.746094 103.46875 C 101.585938 103.382812 99.125 103.308594 96.371094 103.234375 C 93.617188 103.164062 90.65625 103.089844 87.527344 103.019531 C 84.394531 102.945312 81.335938 102.902344 78.351562 102.902344 C 75.074219 102.902344 73.4375 103.570312 73.4375 104.917969 C 73.4375 106.25 74.699219 106.929688 77.234375 106.929688 C 78.871094 106.929688 80.523438 106.960938 82.164062 107.03125 C 83.800781 107.117188 85.0625 107.292969 85.960938 107.597656 C 89.6875 108.351562 92.152344 109.683594 93.355469 111.625 C 94.542969 113.566406 95.28125 116.464844 95.585938 120.347656 C 95.730469 122.128906 95.847656 124.042969 95.921875 126.039062 C 95.992188 128.054688 96.035156 130.777344 96.035156 134.210938 L 96.035156 183.921875 L 97.949219 183.167969 C 104.648438 180.558594 111.390625 178.039062 118.085938 175.417969 C 119.839844 174.722656 121.578125 174.039062 123.320312 173.332031 C 123.03125 173.027344 122.886719 172.433594 122.886719 171.546875 L 122.886719 116.320312 C 122.882812 112.523438 126.347656 109.710938 131.160156 108.726562 Z M 131.160156 108.726562 " fill-opacity="1" fill-rule="evenodd"/></g><g clip-path="url(#a434794800)"><path stroke-linecap="butt" transform="matrix(0.511409, 0, 0, 0.511117, 42.804892, 102.772551)" fill="none" stroke-linejoin="miter" d="M 172.768469 11.649026 C 177.672206 10.632563 183.255744 10.601993 188.984408 11.733095 C 202.167973 14.002941 216.138275 20.865977 224.364637 29.479165 C 217.077776 12.214577 202.450587 0.25394 182.407901 0.25394 C 174.807874 0.25394 166.734277 0.483217 158.118366 0.903559 C 149.494817 1.362114 139.801917 1.560821 129.032029 1.560821 C 126.679458 1.560821 123.387385 1.49968 119.16345 1.362114 C 114.939515 1.193977 110.127438 1.048768 104.742493 0.903559 C 99.357549 0.765993 93.567779 0.620784 87.449566 0.483217 C 81.323715 0.338008 75.342989 0.25394 69.50739 0.25394 C 63.098925 0.25394 59.898511 1.560821 59.898511 4.197511 C 59.898511 6.803631 62.365656 8.13344 67.32286 8.13344 C 70.523273 8.13344 73.75424 8.19458 76.962292 8.332147 C 80.162705 8.500283 82.62985 8.844199 84.38664 9.440321 C 91.673501 10.915339 96.493217 13.521458 98.845788 17.31982 C 101.167807 21.118182 102.61143 26.788976 103.207211 34.385701 C 103.489825 37.870717 103.718972 41.615581 103.864098 45.520939 C 104.001586 49.46451 104.085607 54.791388 104.085607 61.509216 L 104.085607 158.768685 L 107.828334 157.293667 C 120.927879 152.188424 134.111444 147.25896 147.203351 142.130789 C 150.632911 140.77041 154.031919 139.432958 157.438564 138.049651 C 156.873336 137.45353 156.590722 136.291858 156.590722 134.556993 L 156.590722 26.506201 C 156.583084 19.077614 163.358184 13.574956 172.768469 11.649026 Z M 172.768469 11.649026 " stroke="#221f20" stroke-width="0.51" stroke-opacity="1" stroke-miterlimit="10"/></g><path fill="#ffffff" d="M 292.5625 217.867188 C 268.71875 206.726562 234.417969 200.726562 213.265625 188.125 C 180.679688 168.710938 166.3125 128.171875 221.878906 104.265625 C 203.394531 128.128906 209.003906 156.972656 237.578125 170.648438 C 282.621094 192.195312 374.992188 208.347656 309.394531 268.535156 C 326.125 244.105469 317.207031 229.371094 292.5625 217.867188 Z M 292.5625 217.867188 " fill-opacity="1" fill-rule="evenodd"/><g clip-path="url(#e5de06aa01)"><path fill="#ffffff" d="M 248.523438 257.320312 C 249.566406 256.347656 250.351562 255.074219 250.871094 253.507812 C 251.394531 251.945312 251.726562 249.972656 251.886719 247.582031 C 252.03125 245.207031 252.105469 242.152344 252.105469 238.425781 L 252.105469 206.929688 C 253.320312 207.304688 254.554688 207.695312 255.773438 208.074219 C 263.425781 210.464844 271.3125 212.855469 278.964844 215.679688 C 278.980469 222.632812 279.007812 229.097656 279.066406 235.066406 C 279.140625 243.410156 279.472656 249.972656 280.066406 254.742188 C 280.515625 258.03125 281.15625 260.78125 281.980469 263.015625 C 282.792969 265.257812 284.328125 266.59375 286.5625 267.042969 C 287.605469 267.34375 288.792969 267.5625 290.144531 267.722656 C 291.492188 267.867188 292.984375 267.9375 294.621094 267.9375 C 297 267.9375 298.203125 268.535156 298.203125 269.722656 C 298.203125 271.214844 296.710938 271.96875 293.722656 271.96875 C 291.492188 271.96875 288.984375 271.894531 286.230469 271.734375 C 283.472656 271.589844 280.820312 271.519531 278.285156 271.519531 C 275.601562 271.375 273.136719 271.300781 270.90625 271.300781 L 265.527344 271.300781 C 264.367188 271.300781 262.875 271.316406 261.003906 271.34375 C 260.238281 271.359375 259.382812 271.386719 258.484375 271.402344 C 255.421875 271.476562 252.175781 271.664062 248.753906 271.96875 C 247.855469 272.011719 246.972656 272.039062 246.117188 272.082031 C 233.433594 272.097656 220.371094 269.765625 212.601562 258.363281 C 214.777344 259.726562 217.050781 260.722656 219.445312 261.347656 C 222.574219 262.160156 225.402344 262.578125 227.9375 262.578125 C 230.476562 262.578125 233.085938 262.417969 235.765625 262.128906 C 238.464844 261.824219 241.289062 261.085938 244.277344 259.882812 C 246.058594 259.144531 247.480469 258.289062 248.523438 257.320312 Z M 248.523438 257.320312 " fill-opacity="1" fill-rule="evenodd"/></g><g clip-path="url(#47e2d2f745)"><path fill="#ffffff" d="M 201.714844 242.601562 C 204.875 259.625 214.789062 268.257812 226.429688 272.429688 C 218.890625 271.9375 212.210938 270.589844 206.351562 268.386719 C 198.8125 265.550781 192.625 261.824219 187.769531 257.203125 C 182.925781 252.582031 179.316406 247.367188 176.925781 241.554688 C 174.53125 235.730469 173.34375 229.851562 173.34375 223.878906 C 173.34375 217.332031 174.605469 211.433594 177.140625 206.21875 C 179.679688 201.003906 182.925781 196.382812 186.882812 192.355469 C 190.796875 188.355469 195.132812 184.992188 199.859375 182.242188 C 203.570312 185.53125 207.585938 188.425781 211.660156 190.847656 C 213.441406 191.917969 215.28125 192.917969 217.167969 193.859375 C 215.269531 195.644531 213.558594 197.527344 212.050781 199.511719 C 209.222656 203.234375 206.976562 207.074219 205.339844 211.027344 C 203.699219 214.96875 202.539062 218.925781 201.875 222.878906 C 201.207031 226.835938 200.859375 230.515625 200.859375 233.949219 C 200.859375 237.152344 201.148438 240.035156 201.714844 242.601562 Z M 201.714844 242.601562 " fill-opacity="1" fill-rule="evenodd"/></g><g clip-path="url(#881316f1d4)"><path fill="#ffffff" d="M 243.828125 108.726562 C 241.320312 108.207031 238.464844 108.191406 235.535156 108.769531 C 228.792969 109.929688 221.648438 113.4375 217.441406 117.839844 C 221.167969 109.015625 228.648438 102.902344 238.898438 102.902344 C 242.785156 102.902344 246.914062 103.019531 251.320312 103.234375 C 255.730469 103.46875 260.6875 103.570312 266.195312 103.570312 C 267.398438 103.570312 269.078125 103.539062 271.238281 103.46875 C 273.398438 103.382812 275.863281 103.308594 278.617188 103.234375 C 281.371094 103.164062 284.332031 103.089844 287.460938 103.019531 C 290.59375 102.945312 293.652344 102.902344 296.636719 102.902344 C 299.914062 102.902344 301.550781 103.570312 301.550781 104.917969 C 301.550781 106.25 300.289062 106.929688 297.753906 106.929688 C 296.117188 106.929688 294.460938 106.960938 292.824219 107.03125 C 291.1875 107.117188 289.925781 107.292969 289.027344 107.597656 C 285.300781 108.351562 282.835938 109.683594 281.632812 111.625 C 280.445312 113.566406 279.703125 116.464844 279.402344 120.347656 C 279.257812 122.128906 279.140625 124.042969 279.066406 126.039062 C 278.996094 128.054688 278.949219 130.777344 278.949219 134.210938 L 278.949219 183.921875 L 277.039062 183.167969 C 270.339844 180.558594 263.597656 178.039062 256.902344 175.417969 C 255.148438 174.722656 253.410156 174.039062 251.667969 173.332031 C 251.957031 173.027344 252.101562 172.433594 252.101562 171.546875 L 252.101562 116.320312 C 252.105469 112.523438 248.640625 109.710938 243.828125 108.726562 Z M 243.828125 108.726562 " fill-opacity="1" fill-rule="evenodd"/></g><g clip-path="url(#57f4869786)"><path stroke-linecap="butt" transform="matrix(-0.511409, 0, 0, 0.511117, 332.183128, 102.772551)" fill="none" stroke-linejoin="miter" d="M 172.767959 11.649026 C 177.671696 10.632563 183.255234 10.601993 188.983898 11.733095 C 202.167463 14.002941 216.137765 20.865977 224.364127 29.479165 C 217.077266 12.214577 202.450077 0.25394 182.407391 0.25394 C 174.807364 0.25394 166.733766 0.483217 158.117856 0.903559 C 149.494307 1.362114 139.801407 1.560821 129.031519 1.560821 C 126.678947 1.560821 123.394513 1.49968 119.170578 1.362114 C 114.946643 1.193977 110.126927 1.048768 104.741983 0.903559 C 99.357039 0.765993 93.567269 0.620784 87.449056 0.483217 C 81.323205 0.338008 75.342479 0.25394 69.50688 0.25394 C 63.098415 0.25394 59.898001 1.560821 59.898001 4.197511 C 59.898001 6.803631 62.365146 8.13344 67.32235 8.13344 C 70.522763 8.13344 73.761368 8.19458 76.961782 8.332147 C 80.162195 8.500283 82.62934 8.844199 84.38613 9.440321 C 91.672991 10.915339 96.492707 13.521458 98.845278 17.31982 C 101.167297 21.118182 102.618558 26.788976 103.206701 34.385701 C 103.489315 37.870717 103.718462 41.615581 103.863588 45.520939 C 104.001076 49.46451 104.092735 54.791388 104.092735 61.509216 L 104.092735 158.768685 L 107.827824 157.293667 C 120.927369 152.188424 134.110934 147.25896 147.202841 142.130789 C 150.632401 140.77041 154.031409 139.432958 157.438054 138.049651 C 156.872826 137.45353 156.590212 136.291858 156.590212 134.556993 L 156.590212 26.506201 C 156.582574 19.077614 163.357674 13.574956 172.767959 11.649026 Z M 172.767959 11.649026 " stroke="#221f20" stroke-width="0.51" stroke-opacity="1" stroke-miterlimit="10"/></g></svg>