<svg xmlns="http://www.w3.org/2000/svg" xmlns:xlink="http://www.w3.org/1999/xlink" width="500" zoomAndPan="magnify" viewBox="0 0 375 374.999991" height="500" preserveAspectRatio="xMidYMid meet" version="1.0"><defs><g/><clipPath id="f59d794b3d"><path d="M 10.550781 10.550781 L 364.816406 10.550781 L 364.816406 364.816406 L 10.550781 364.816406 Z M 10.550781 10.550781 " clip-rule="nonzero"/></clipPath><clipPath id="c0e6a1a60b"><path d="M 91 204 L 166 204 L 166 261.539062 L 91 261.539062 Z M 91 204 " clip-rule="nonzero"/></clipPath><clipPath id="b5363544bb"><path d="M 153 182 L 200 182 L 200 261.539062 L 153 261.539062 Z M 153 182 " clip-rule="nonzero"/></clipPath><clipPath id="a79ae1735e"><path d="M 88 113.621094 L 162 113.621094 L 162 185 L 88 185 Z M 88 113.621094 " clip-rule="nonzero"/></clipPath><clipPath id="84248e262e"><path d="M 84 113.621094 L 165 113.621094 L 165 188 L 84 188 Z M 84 113.621094 " clip-rule="nonzero"/></clipPath><clipPath id="bbeb47414c"><path d="M 209 204 L 284 204 L 284 261.539062 L 209 261.539062 Z M 209 204 " clip-rule="nonzero"/></clipPath><clipPath id="13ee0effeb"><path d="M 175 182 L 222 182 L 222 261.539062 L 175 261.539062 Z M 175 182 " clip-rule="nonzero"/></clipPath><clipPath id="faf2d23e72"><path d="M 213 113.621094 L 287 113.621094 L 287 185 L 213 185 Z M 213 113.621094 " clip-rule="nonzero"/></clipPath><clipPath id="f235c45a05"><path d="M 210 113.621094 L 291 113.621094 L 291 188 L 210 188 Z M 210 113.621094 " clip-rule="nonzero"/></clipPath></defs><g clip-path="url(#f59d794b3d)"><path fill="#260801" d="M 322.378906 66.734375 C 315.449219 54.738281 302.886719 48.027344 289.964844 48.015625 C 277.042969 48.003906 264.476562 41.292969 257.550781 29.296875 C 247.214844 11.394531 224.324219 5.261719 206.421875 15.597656 L 206.421875 15.601562 L 206.421875 15.589844 C 195.300781 21.996094 181.191406 22.503906 169.246094 15.730469 C 163.679688 12.449219 157.199219 10.570312 150.273438 10.570312 C 136.421875 10.570312 124.328125 18.097656 117.855469 29.285156 L 117.855469 29.28125 C 111.382812 40.464844 99.289062 47.992188 85.4375 47.992188 C 64.765625 47.992188 48.007812 64.75 48.007812 85.421875 L 48.007812 85.425781 L 47.996094 85.421875 C 47.984375 98.246094 41.375 110.714844 29.554688 117.671875 C 23.925781 120.851562 19.046875 125.527344 15.582031 131.53125 C 8.65625 143.53125 9.125 157.765625 15.578125 168.964844 C 22.023438 180.160156 22.496094 194.398438 15.570312 206.394531 C 5.234375 224.292969 11.367188 247.183594 29.269531 257.519531 L 29.273438 257.523438 L 29.265625 257.527344 C 40.453125 263.996094 47.972656 276.089844 47.972656 289.945312 C 47.972656 310.617188 64.730469 327.371094 85.402344 327.371094 C 99.253906 327.371094 111.347656 334.898438 117.820312 346.085938 C 124.292969 357.265625 136.386719 364.796875 150.238281 364.796875 C 157.164062 364.796875 163.644531 362.914062 169.210938 359.636719 C 181.152344 352.863281 195.265625 353.371094 206.386719 359.78125 L 206.386719 359.765625 L 206.386719 359.769531 C 224.289062 370.105469 247.179688 363.972656 257.519531 346.070312 C 264.445312 334.074219 277.007812 327.363281 289.929688 327.355469 L 289.925781 327.347656 C 302.851562 327.339844 315.417969 320.625 322.339844 308.632812 C 325.75 302.726562 327.367188 296.277344 327.363281 289.914062 L 327.367188 289.917969 C 327.378906 277.453125 333.625 265.320312 344.832031 258.261719 C 350.875 255.082031 356.121094 250.214844 359.785156 243.867188 C 366.710938 231.867188 366.242188 217.632812 359.789062 206.433594 C 353.339844 195.238281 352.867188 181 359.796875 169.003906 C 370.132812 151.101562 364 128.214844 346.09375 117.878906 L 346.09375 117.875 L 346.101562 117.871094 C 335.003906 111.449219 327.511719 99.496094 327.394531 85.78125 C 327.457031 79.3125 325.84375 72.742188 322.378906 66.734375 " fill-opacity="1" fill-rule="nonzero"/></g><path fill="#ffffff" d="M 96 213.945312 C 116.765625 204.242188 146.632812 199.019531 165.050781 188.042969 C 193.429688 171.136719 205.941406 135.835938 157.550781 115.019531 C 173.648438 135.796875 168.761719 160.917969 143.878906 172.828125 C 104.660156 191.589844 24.21875 205.65625 81.34375 258.066406 C 66.773438 236.792969 74.539062 223.960938 96 213.945312 Z M 96 213.945312 " fill-opacity="1" fill-rule="evenodd"/><g clip-path="url(#c0e6a1a60b)"><path fill="#ffffff" d="M 134.347656 248.300781 C 133.441406 247.453125 132.757812 246.34375 132.304688 244.980469 C 131.851562 243.621094 131.558594 241.902344 131.421875 239.820312 C 131.296875 237.753906 131.230469 235.089844 131.230469 231.847656 L 131.230469 204.417969 C 130.171875 204.746094 129.097656 205.089844 128.039062 205.414062 C 121.371094 207.496094 114.503906 209.578125 107.839844 212.039062 C 107.828125 218.09375 107.800781 223.722656 107.75 228.921875 C 107.6875 236.1875 107.398438 241.902344 106.878906 246.054688 C 106.488281 248.917969 105.933594 251.316406 105.214844 253.257812 C 104.507812 255.214844 103.167969 256.375 101.226562 256.765625 C 100.316406 257.03125 99.28125 257.21875 98.105469 257.359375 C 96.933594 257.484375 95.632812 257.546875 94.207031 257.546875 C 92.136719 257.546875 91.085938 258.066406 91.085938 259.101562 C 91.085938 260.398438 92.386719 261.054688 94.988281 261.054688 C 96.933594 261.054688 99.117188 260.992188 101.515625 260.851562 C 103.914062 260.726562 106.222656 260.664062 108.433594 260.664062 C 110.769531 260.539062 112.914062 260.476562 114.859375 260.476562 L 119.542969 260.476562 C 120.550781 260.476562 121.851562 260.488281 123.480469 260.511719 C 124.148438 260.523438 124.894531 260.550781 125.675781 260.5625 C 128.339844 260.625 131.167969 260.789062 134.148438 261.054688 C 134.929688 261.09375 135.699219 261.117188 136.445312 261.15625 C 147.492188 261.167969 158.863281 259.136719 165.632812 249.207031 C 163.738281 250.394531 161.757812 251.265625 159.671875 251.808594 C 156.945312 252.515625 154.484375 252.878906 152.273438 252.878906 C 150.066406 252.878906 147.792969 252.742188 145.457031 252.488281 C 143.109375 252.222656 140.648438 251.578125 138.046875 250.53125 C 136.496094 249.890625 135.257812 249.144531 134.347656 248.300781 Z M 134.347656 248.300781 " fill-opacity="1" fill-rule="evenodd"/></g><g clip-path="url(#b5363544bb)"><path fill="#ffffff" d="M 175.113281 235.480469 C 172.359375 250.304688 163.726562 257.824219 153.589844 261.460938 C 160.152344 261.03125 165.972656 259.855469 171.074219 257.9375 C 177.636719 255.464844 183.027344 252.222656 187.257812 248.199219 C 191.472656 244.175781 194.617188 239.632812 196.699219 234.574219 C 198.78125 229.5 199.816406 224.378906 199.816406 219.179688 C 199.816406 213.476562 198.71875 208.34375 196.507812 203.800781 C 194.300781 199.257812 191.472656 195.234375 188.027344 191.726562 C 184.617188 188.246094 180.84375 185.316406 176.726562 182.921875 C 173.496094 185.785156 170 188.308594 166.453125 190.414062 C 164.898438 191.347656 163.296875 192.21875 161.65625 193.039062 C 163.308594 194.589844 164.796875 196.230469 166.109375 197.960938 C 168.574219 201.203125 170.527344 204.546875 171.957031 207.988281 C 173.382812 211.421875 174.390625 214.867188 174.972656 218.308594 C 175.554688 221.753906 175.855469 224.957031 175.855469 227.949219 C 175.855469 230.738281 175.605469 233.25 175.113281 235.480469 Z M 175.113281 235.480469 " fill-opacity="1" fill-rule="evenodd"/></g><g clip-path="url(#a79ae1735e)"><path fill="#ffffff" d="M 138.441406 118.902344 C 140.625 118.449219 143.109375 118.4375 145.660156 118.941406 C 151.53125 119.949219 157.753906 123.003906 161.414062 126.839844 C 158.171875 119.15625 151.65625 113.832031 142.730469 113.832031 C 139.347656 113.832031 135.75 113.933594 131.914062 114.121094 C 128.074219 114.324219 123.757812 114.410156 118.960938 114.410156 C 117.914062 114.410156 116.449219 114.386719 114.566406 114.324219 C 112.6875 114.25 110.539062 114.183594 108.140625 114.121094 C 105.742188 114.058594 103.167969 113.996094 100.441406 113.933594 C 97.714844 113.871094 95.050781 113.832031 92.449219 113.832031 C 89.597656 113.832031 88.171875 114.410156 88.171875 115.585938 C 88.171875 116.746094 89.269531 117.339844 91.480469 117.339844 C 92.90625 117.339844 94.34375 117.363281 95.769531 117.425781 C 97.199219 117.503906 98.296875 117.652344 99.078125 117.917969 C 102.324219 118.574219 104.46875 119.734375 105.515625 121.425781 C 106.550781 123.117188 107.195312 125.640625 107.460938 129.023438 C 107.585938 130.574219 107.6875 132.238281 107.75 133.980469 C 107.816406 135.734375 107.851562 138.105469 107.851562 141.097656 L 107.851562 184.382812 L 109.519531 183.726562 C 115.351562 181.457031 121.222656 179.261719 127.054688 176.976562 C 128.582031 176.371094 130.09375 175.78125 131.609375 175.160156 C 131.359375 174.894531 131.230469 174.378906 131.230469 173.609375 L 131.230469 125.515625 C 131.230469 122.210938 134.25 119.761719 138.441406 118.902344 Z M 138.441406 118.902344 " fill-opacity="1" fill-rule="evenodd"/></g><g clip-path="url(#84248e262e)"><path stroke-linecap="butt" transform="matrix(0.445342, 0, 0, 0.445087, 61.497495, 113.718141)" fill="none" stroke-linejoin="miter" d="M 172.775039 11.647603 C 177.678227 10.629545 183.25681 10.603216 188.984506 11.735367 C 202.167855 13.999669 216.140627 20.862786 224.359388 29.481176 C 217.079162 12.218067 202.448539 0.255882 182.405989 0.255882 C 174.809994 0.255882 166.731574 0.484068 158.118102 0.905333 C 149.495858 1.361704 139.803509 1.554784 129.032283 1.554784 C 126.681559 1.554784 123.392301 1.502126 119.164507 1.361704 C 114.945484 1.194953 110.121238 1.045755 104.735625 0.905333 C 99.350012 0.764911 93.569688 0.624489 87.447281 0.484068 C 81.324874 0.343646 75.342808 0.255882 69.501085 0.255882 C 63.097994 0.255882 59.896449 1.554784 59.896449 4.19647 C 59.896449 6.80305 62.3612 8.137057 67.325788 8.137057 C 70.527333 8.137057 73.755193 8.189716 76.956738 8.330137 C 80.167054 8.505665 82.631806 8.839167 84.386077 9.435959 C 91.675075 10.910389 96.490549 13.516969 98.841273 17.317135 C 101.165683 21.117301 102.612956 26.786832 103.209409 34.387164 C 103.490092 37.871381 103.718147 41.610112 103.858489 45.52437 C 104.007602 49.464958 104.086544 54.792211 104.086544 61.514907 L 104.086544 158.765802 L 107.831914 157.291373 C 120.927549 152.192305 134.110898 147.259988 147.206534 142.125815 C 150.636135 140.765478 154.03065 139.440247 157.433936 138.044805 C 156.872569 137.448013 156.583114 136.289532 156.583114 134.560589 L 156.583114 26.505988 C 156.583114 19.081184 163.363373 13.578403 172.775039 11.647603 Z M 172.775039 11.647603 " stroke="#221f20" stroke-width="0.51" stroke-opacity="1" stroke-miterlimit="10"/></g><path fill="#ffffff" d="M 278.992188 213.945312 C 258.226562 204.242188 228.355469 199.019531 209.9375 188.042969 C 181.558594 171.136719 169.050781 135.835938 217.4375 115.019531 C 201.339844 135.796875 206.226562 160.917969 231.109375 172.828125 C 270.332031 191.589844 350.769531 205.65625 293.648438 258.066406 C 308.214844 236.792969 300.453125 223.960938 278.992188 213.945312 Z M 278.992188 213.945312 " fill-opacity="1" fill-rule="evenodd"/><g clip-path="url(#bbeb47414c)"><path fill="#ffffff" d="M 240.640625 248.300781 C 241.550781 247.453125 242.230469 246.34375 242.683594 244.980469 C 243.140625 243.621094 243.429688 241.902344 243.570312 239.820312 C 243.695312 237.753906 243.757812 235.089844 243.757812 231.847656 L 243.757812 204.417969 C 244.816406 204.746094 245.890625 205.089844 246.953125 205.414062 C 253.617188 207.496094 260.484375 209.578125 267.148438 212.039062 C 267.164062 218.09375 267.1875 223.722656 267.238281 228.921875 C 267.300781 236.1875 267.589844 241.902344 268.109375 246.054688 C 268.5 248.917969 269.054688 251.316406 269.777344 253.257812 C 270.480469 255.214844 271.820312 256.375 273.765625 256.765625 C 274.671875 257.03125 275.707031 257.21875 276.882812 257.359375 C 278.058594 257.484375 279.355469 257.546875 280.785156 257.546875 C 282.855469 257.546875 283.902344 258.066406 283.902344 259.101562 C 283.902344 260.398438 282.601562 261.054688 280 261.054688 C 278.058594 261.054688 275.875 260.992188 273.472656 260.851562 C 271.074219 260.726562 268.765625 260.664062 266.558594 260.664062 C 264.222656 260.539062 262.074219 260.476562 260.132812 260.476562 L 255.449219 260.476562 C 254.4375 260.476562 253.136719 260.488281 251.507812 260.511719 C 250.839844 260.523438 250.09375 260.550781 249.3125 260.5625 C 246.648438 260.625 243.820312 260.789062 240.84375 261.054688 C 240.058594 261.09375 239.289062 261.117188 238.542969 261.15625 C 227.5 261.167969 216.125 259.136719 209.359375 249.207031 C 211.25 250.394531 213.234375 251.265625 215.316406 251.808594 C 218.042969 252.515625 220.503906 252.878906 222.714844 252.878906 C 224.925781 252.878906 227.195312 252.742188 229.53125 252.488281 C 231.878906 252.222656 234.339844 251.578125 236.941406 250.53125 C 238.492188 249.890625 239.730469 249.144531 240.640625 248.300781 Z M 240.640625 248.300781 " fill-opacity="1" fill-rule="evenodd"/></g><g clip-path="url(#13ee0effeb)"><path fill="#ffffff" d="M 199.878906 235.480469 C 202.628906 250.304688 211.265625 257.824219 221.402344 261.460938 C 214.835938 261.03125 209.015625 259.855469 203.917969 257.9375 C 197.351562 255.464844 191.960938 252.222656 187.734375 248.199219 C 183.515625 244.175781 180.375 239.632812 178.289062 234.574219 C 176.207031 229.5 175.171875 224.378906 175.171875 219.179688 C 175.171875 213.476562 176.269531 208.34375 178.480469 203.800781 C 180.6875 199.257812 183.515625 195.234375 186.964844 191.726562 C 190.371094 188.246094 194.144531 185.316406 198.261719 182.921875 C 201.492188 185.785156 204.992188 188.308594 208.539062 190.414062 C 210.089844 191.347656 211.695312 192.21875 213.335938 193.039062 C 211.679688 194.589844 210.191406 196.230469 208.878906 197.960938 C 206.417969 201.203125 204.460938 204.546875 203.035156 207.988281 C 201.609375 211.421875 200.597656 214.867188 200.015625 218.308594 C 199.4375 221.753906 199.132812 224.957031 199.132812 227.949219 C 199.132812 230.738281 199.386719 233.25 199.878906 235.480469 Z M 199.878906 235.480469 " fill-opacity="1" fill-rule="evenodd"/></g><g clip-path="url(#faf2d23e72)"><path fill="#ffffff" d="M 236.550781 118.902344 C 234.367188 118.449219 231.878906 118.4375 229.328125 118.941406 C 223.460938 119.949219 217.234375 123.003906 213.574219 126.839844 C 216.820312 119.15625 223.332031 113.832031 232.257812 113.832031 C 235.640625 113.832031 239.238281 113.933594 243.078125 114.121094 C 246.914062 114.324219 251.230469 114.410156 256.027344 114.410156 C 257.078125 114.410156 258.539062 114.386719 260.421875 114.324219 C 262.304688 114.25 264.449219 114.183594 266.847656 114.121094 C 269.246094 114.058594 271.820312 113.996094 274.546875 113.933594 C 277.273438 113.871094 279.9375 113.832031 282.539062 113.832031 C 285.390625 113.832031 286.816406 114.410156 286.816406 115.585938 C 286.816406 116.746094 285.71875 117.339844 283.511719 117.339844 C 282.082031 117.339844 280.644531 117.363281 279.21875 117.425781 C 277.792969 117.503906 276.695312 117.652344 275.910156 117.917969 C 272.667969 118.574219 270.519531 119.734375 269.472656 121.425781 C 268.4375 123.117188 267.792969 125.640625 267.527344 129.023438 C 267.402344 130.574219 267.300781 132.238281 267.238281 133.980469 C 267.175781 135.734375 267.136719 138.105469 267.136719 141.097656 L 267.136719 184.382812 L 265.46875 183.726562 C 259.636719 181.457031 253.769531 179.261719 247.9375 176.976562 C 246.410156 176.371094 244.894531 175.78125 243.378906 175.160156 C 243.632812 174.894531 243.757812 174.378906 243.757812 173.609375 L 243.757812 125.515625 C 243.757812 122.210938 240.742188 119.761719 236.550781 118.902344 Z M 236.550781 118.902344 " fill-opacity="1" fill-rule="evenodd"/></g><g clip-path="url(#f235c45a05)"><path stroke-linecap="butt" transform="matrix(-0.445342, 0, 0, 0.445087, 313.492102, 113.718141)" fill="none" stroke-linejoin="miter" d="M 172.769222 11.647603 C 177.672411 10.629545 183.259765 10.603216 188.987461 11.735367 C 202.162039 13.999669 216.143582 20.862786 224.362343 29.481176 C 217.073345 12.218067 202.451494 0.255882 182.408944 0.255882 C 174.812949 0.255882 166.734529 0.484068 158.112285 0.905333 C 149.498813 1.361704 139.806464 1.554784 129.035238 1.554784 C 126.675743 1.554784 123.395255 1.502126 119.167461 1.361704 C 114.939667 1.194953 110.124193 1.045755 104.73858 0.905333 C 99.352967 0.764911 93.572642 0.624489 87.450235 0.484068 C 81.327828 0.343646 75.345763 0.255882 69.50404 0.255882 C 63.100949 0.255882 59.899404 1.554784 59.899404 4.19647 C 59.899404 6.80305 62.364155 8.137057 67.319972 8.137057 C 70.530288 8.137057 73.758148 8.189716 76.959693 8.330137 C 80.161238 8.505665 82.625989 8.839167 84.389032 9.435959 C 91.669258 10.910389 96.493504 13.516969 98.844228 17.317135 C 101.168637 21.117301 102.615911 26.786832 103.212364 34.387164 C 103.493047 37.871381 103.721102 41.610112 103.861444 45.52437 C 104.001786 49.464958 104.089499 54.792211 104.089499 61.514907 L 104.089499 158.765802 L 107.834869 157.291373 C 120.930504 152.192305 134.105082 147.259988 147.200718 142.125815 C 150.630318 140.765478 154.033604 139.440247 157.436891 138.044805 C 156.866753 137.448013 156.586069 136.289532 156.586069 134.560589 L 156.586069 26.505988 C 156.586069 19.081184 163.357557 13.578403 172.769222 11.647603 Z M 172.769222 11.647603 " stroke="#221f20" stroke-width="0.51" stroke-opacity="1" stroke-miterlimit="10"/></g><g fill="#ffffff" fill-opacity="1"><g transform="translate(68.827236, 305.927586)"><g><path d="M 1.421875 -29.734375 C 2.148438 -29.703125 3.101562 -29.671875 4.28125 -29.640625 C 5.457031 -29.617188 6.632812 -29.609375 7.8125 -29.609375 C 9.15625 -29.609375 10.457031 -29.617188 11.71875 -29.640625 C 12.976562 -29.671875 13.875 -29.6875 14.40625 -29.6875 C 17.875 -29.6875 20.46875 -29.070312 22.1875 -27.84375 C 23.914062 -26.613281 24.78125 -25.03125 24.78125 -23.09375 C 24.78125 -22.113281 24.484375 -21.117188 23.890625 -20.109375 C 23.304688 -19.109375 22.394531 -18.210938 21.15625 -17.421875 C 19.925781 -16.640625 18.332031 -16.066406 16.375 -15.703125 L 16.375 -15.625 C 19.007812 -15.425781 21.097656 -14.945312 22.640625 -14.1875 C 24.179688 -13.4375 25.285156 -12.53125 25.953125 -11.46875 C 26.628906 -10.40625 26.96875 -9.296875 26.96875 -8.140625 C 26.96875 -6.378906 26.503906 -4.894531 25.578125 -3.6875 C 24.648438 -2.488281 23.316406 -1.570312 21.578125 -0.9375 C 19.847656 -0.3125 17.78125 0 15.375 0 C 14.695312 0 13.726562 -0.0195312 12.46875 -0.0625 C 11.207031 -0.101562 9.679688 -0.125 7.890625 -0.125 C 6.660156 -0.125 5.457031 -0.113281 4.28125 -0.09375 C 3.101562 -0.0820312 2.148438 -0.0507812 1.421875 0 L 1.421875 -0.84375 C 2.316406 -0.894531 2.988281 -1.003906 3.4375 -1.171875 C 3.882812 -1.335938 4.1875 -1.671875 4.34375 -2.171875 C 4.5 -2.679688 4.578125 -3.441406 4.578125 -4.453125 L 4.578125 -25.28125 C 4.578125 -26.320312 4.5 -27.085938 4.34375 -27.578125 C 4.1875 -28.066406 3.878906 -28.398438 3.421875 -28.578125 C 2.960938 -28.765625 2.296875 -28.867188 1.421875 -28.890625 Z M 13.859375 -28.890625 C 12.765625 -28.890625 12.054688 -28.648438 11.734375 -28.171875 C 11.410156 -27.703125 11.25 -26.738281 11.25 -25.28125 L 11.25 -4.453125 C 11.25 -3.472656 11.328125 -2.726562 11.484375 -2.21875 C 11.640625 -1.71875 11.921875 -1.382812 12.328125 -1.21875 C 12.734375 -1.050781 13.34375 -0.96875 14.15625 -0.96875 C 16.164062 -0.96875 17.640625 -1.601562 18.578125 -2.875 C 19.515625 -4.144531 19.984375 -5.957031 19.984375 -8.3125 C 19.984375 -10.46875 19.445312 -12.132812 18.375 -13.3125 C 17.300781 -14.488281 15.515625 -15.078125 13.015625 -15.078125 L 9.453125 -15.078125 C 9.453125 -15.078125 9.453125 -15.195312 9.453125 -15.4375 C 9.453125 -15.675781 9.453125 -15.796875 9.453125 -15.796875 L 13.0625 -15.796875 C 14.375 -15.796875 15.378906 -16.109375 16.078125 -16.734375 C 16.785156 -17.367188 17.273438 -18.207031 17.546875 -19.25 C 17.828125 -20.300781 17.96875 -21.429688 17.96875 -22.640625 C 17.96875 -24.710938 17.644531 -26.269531 17 -27.3125 C 16.363281 -28.363281 15.316406 -28.890625 13.859375 -28.890625 Z M 13.859375 -28.890625 "/></g></g></g><g fill="#ffffff" fill-opacity="1"><g transform="translate(98.311237, 305.927586)"><g><path d="M 1.421875 -29.734375 C 2.128906 -29.703125 3.078125 -29.671875 4.265625 -29.640625 C 5.453125 -29.617188 6.632812 -29.609375 7.8125 -29.609375 C 9.15625 -29.609375 10.457031 -29.617188 11.71875 -29.640625 C 12.976562 -29.671875 13.875 -29.6875 14.40625 -29.6875 C 17.007812 -29.6875 19.171875 -29.398438 20.890625 -28.828125 C 22.617188 -28.253906 23.910156 -27.421875 24.765625 -26.328125 C 25.617188 -25.242188 26.046875 -23.929688 26.046875 -22.390625 C 26.046875 -21.429688 25.847656 -20.46875 25.453125 -19.5 C 25.054688 -18.539062 24.390625 -17.644531 23.453125 -16.8125 C 22.515625 -15.988281 21.234375 -15.332031 19.609375 -14.84375 C 17.984375 -14.351562 15.941406 -14.109375 13.484375 -14.109375 L 9.453125 -14.109375 L 9.453125 -14.953125 L 13.0625 -14.953125 C 14.71875 -14.953125 15.972656 -15.265625 16.828125 -15.890625 C 17.679688 -16.523438 18.265625 -17.363281 18.578125 -18.40625 C 18.898438 -19.457031 19.0625 -20.628906 19.0625 -21.921875 C 19.0625 -24.128906 18.671875 -25.84375 17.890625 -27.0625 C 17.109375 -28.28125 15.765625 -28.890625 13.859375 -28.890625 C 12.765625 -28.890625 12.054688 -28.648438 11.734375 -28.171875 C 11.410156 -27.703125 11.25 -26.738281 11.25 -25.28125 L 11.25 -4.453125 C 11.25 -3.441406 11.328125 -2.679688 11.484375 -2.171875 C 11.640625 -1.671875 11.941406 -1.335938 12.390625 -1.171875 C 12.835938 -1.003906 13.507812 -0.894531 14.40625 -0.84375 L 14.40625 0 C 13.644531 -0.0507812 12.691406 -0.0820312 11.546875 -0.09375 C 10.398438 -0.113281 9.238281 -0.125 8.0625 -0.125 C 6.71875 -0.125 5.453125 -0.113281 4.265625 -0.09375 C 3.078125 -0.0820312 2.128906 -0.0507812 1.421875 0 L 1.421875 -0.84375 C 2.316406 -0.894531 2.988281 -1.003906 3.4375 -1.171875 C 3.882812 -1.335938 4.1875 -1.671875 4.34375 -2.171875 C 4.5 -2.679688 4.578125 -3.441406 4.578125 -4.453125 L 4.578125 -25.28125 C 4.578125 -26.320312 4.5 -27.085938 4.34375 -27.578125 C 4.1875 -28.066406 3.878906 -28.398438 3.421875 -28.578125 C 2.960938 -28.765625 2.296875 -28.867188 1.421875 -28.890625 Z M 9.359375 -14.828125 C 10.566406 -14.796875 11.609375 -14.738281 12.484375 -14.65625 C 13.367188 -14.570312 14.144531 -14.492188 14.8125 -14.421875 C 15.488281 -14.359375 16.09375 -14.3125 16.625 -14.28125 C 19.175781 -14.050781 21.0625 -13.503906 22.28125 -12.640625 C 23.5 -11.773438 24.289062 -10.472656 24.65625 -8.734375 L 25.625 -4.40625 C 25.875 -3.289062 26.140625 -2.507812 26.421875 -2.0625 C 26.703125 -1.613281 27.109375 -1.390625 27.640625 -1.390625 C 28.003906 -1.410156 28.300781 -1.5 28.53125 -1.65625 C 28.769531 -1.8125 29.03125 -2.046875 29.3125 -2.359375 L 29.90625 -1.84375 C 29.144531 -0.976562 28.332031 -0.359375 27.46875 0.015625 C 26.601562 0.398438 25.550781 0.59375 24.3125 0.59375 C 22.800781 0.59375 21.554688 0.269531 20.578125 -0.375 C 19.597656 -1.019531 18.953125 -2.210938 18.640625 -3.953125 L 17.890625 -8.140625 C 17.691406 -9.316406 17.453125 -10.347656 17.171875 -11.234375 C 16.898438 -12.117188 16.515625 -12.816406 16.015625 -13.328125 C 15.523438 -13.847656 14.847656 -14.109375 13.984375 -14.109375 L 9.453125 -14.109375 Z M 9.359375 -14.828125 "/></g></g></g><g fill="#ffffff" fill-opacity="1"><g transform="translate(128.635234, 305.927586)"><g><path d="M 16.671875 -30.328125 C 19.640625 -30.328125 22.234375 -29.722656 24.453125 -28.515625 C 26.679688 -27.316406 28.410156 -25.585938 29.640625 -23.328125 C 30.878906 -21.078125 31.5 -18.34375 31.5 -15.125 C 31.5 -11.988281 30.867188 -9.242188 29.609375 -6.890625 C 28.347656 -4.535156 26.585938 -2.695312 24.328125 -1.375 C 22.078125 -0.0625 19.507812 0.59375 16.625 0.59375 C 13.664062 0.59375 11.070312 -0.0078125 8.84375 -1.21875 C 6.613281 -2.425781 4.882812 -4.160156 3.65625 -6.421875 C 2.425781 -8.691406 1.8125 -11.421875 1.8125 -14.609375 C 1.8125 -17.742188 2.445312 -20.488281 3.71875 -22.84375 C 4.988281 -25.195312 6.738281 -27.03125 8.96875 -28.34375 C 11.195312 -29.664062 13.765625 -30.328125 16.671875 -30.328125 Z M 16.5 -29.5625 C 14.9375 -29.5625 13.570312 -28.929688 12.40625 -27.671875 C 11.25 -26.410156 10.351562 -24.675781 9.71875 -22.46875 C 9.09375 -20.257812 8.78125 -17.695312 8.78125 -14.78125 C 8.78125 -11.8125 9.132812 -9.226562 9.84375 -7.03125 C 10.5625 -4.832031 11.53125 -3.140625 12.75 -1.953125 C 13.96875 -0.765625 15.316406 -0.171875 16.796875 -0.171875 C 18.367188 -0.171875 19.734375 -0.800781 20.890625 -2.0625 C 22.054688 -3.320312 22.953125 -5.0625 23.578125 -7.28125 C 24.210938 -9.507812 24.53125 -12.066406 24.53125 -14.953125 C 24.53125 -17.953125 24.171875 -20.539062 23.453125 -22.71875 C 22.742188 -24.90625 21.78125 -26.59375 20.5625 -27.78125 C 19.34375 -28.96875 17.988281 -29.5625 16.5 -29.5625 Z M 16.5 -29.5625 "/></g></g></g><g fill="#ffffff" fill-opacity="1"><g transform="translate(163.201224, 305.927586)"><g><path d="M 40.90625 -29.734375 L 40.90625 -28.890625 C 40.289062 -28.671875 39.644531 -28.1875 38.96875 -27.4375 C 38.300781 -26.695312 37.71875 -25.515625 37.21875 -23.890625 L 29.8125 0.078125 C 29.59375 0.0546875 29.359375 0.046875 29.109375 0.046875 C 28.859375 0.046875 28.601562 0.046875 28.34375 0.046875 C 28.09375 0.046875 27.84375 0.046875 27.59375 0.046875 C 27.34375 0.046875 27.101562 0.0546875 26.875 0.078125 L 18.0625 -26.625 C 17.78125 -27.5 17.4375 -28.085938 17.03125 -28.390625 C 16.625 -28.703125 16.195312 -28.867188 15.75 -28.890625 L 15.75 -29.734375 C 16.53125 -29.703125 17.457031 -29.671875 18.53125 -29.640625 C 19.613281 -29.617188 20.6875 -29.609375 21.75 -29.609375 C 22.988281 -29.609375 24.144531 -29.617188 25.21875 -29.640625 C 26.300781 -29.671875 27.160156 -29.703125 27.796875 -29.734375 L 27.796875 -28.890625 C 26.960938 -28.867188 26.300781 -28.769531 25.8125 -28.59375 C 25.320312 -28.425781 25.039062 -28.101562 24.96875 -27.625 C 24.894531 -27.15625 25.03125 -26.40625 25.375 -25.375 L 31.328125 -7.140625 L 30.359375 -5.421875 L 35.109375 -20.5 C 35.785156 -22.625 36.109375 -24.285156 36.078125 -25.484375 C 36.046875 -26.691406 35.722656 -27.554688 35.109375 -28.078125 C 34.492188 -28.597656 33.613281 -28.867188 32.46875 -28.890625 L 32.46875 -29.734375 C 33.414062 -29.703125 34.304688 -29.671875 35.140625 -29.640625 C 35.984375 -29.617188 36.828125 -29.609375 37.671875 -29.609375 C 38.316406 -29.609375 38.910156 -29.617188 39.453125 -29.640625 C 40.003906 -29.671875 40.488281 -29.703125 40.90625 -29.734375 Z M 10.921875 -29.734375 L 10.921875 -28.890625 C 10.359375 -28.804688 9.960938 -28.601562 9.734375 -28.28125 C 9.515625 -27.957031 9.425781 -27.535156 9.46875 -27.015625 C 9.507812 -26.503906 9.628906 -25.957031 9.828125 -25.375 L 16.25 -6.71875 L 15.125 -5.203125 L 20.5 -20.921875 L 21.078125 -19.78125 L 14.484375 0.078125 C 14.265625 0.0546875 14.023438 0.046875 13.765625 0.046875 C 13.515625 0.046875 13.265625 0.046875 13.015625 0.046875 C 12.765625 0.046875 12.515625 0.046875 12.265625 0.046875 C 12.015625 0.046875 11.773438 0.0546875 11.546875 0.078125 L 2.140625 -26.203125 C 1.773438 -27.242188 1.347656 -27.945312 0.859375 -28.3125 C 0.367188 -28.675781 -0.0820312 -28.867188 -0.5 -28.890625 L -0.5 -29.734375 C 0.332031 -29.703125 1.320312 -29.671875 2.46875 -29.640625 C 3.625 -29.617188 4.71875 -29.609375 5.75 -29.609375 C 6.875 -29.609375 7.875 -29.617188 8.75 -29.640625 C 9.632812 -29.671875 10.359375 -29.703125 10.921875 -29.734375 Z M 10.921875 -29.734375 "/></g></g></g><g fill="#ffffff" fill-opacity="1"><g transform="translate(205.117216, 305.927586)"><g><path d="M 29.109375 -29.734375 L 29.109375 -28.890625 C 28.210938 -28.785156 27.539062 -28.554688 27.09375 -28.203125 C 26.644531 -27.847656 26.34375 -27.289062 26.1875 -26.53125 C 26.03125 -25.78125 25.953125 -24.722656 25.953125 -23.359375 L 25.953125 0.078125 C 25.617188 0.0546875 25.273438 0.046875 24.921875 0.046875 C 24.578125 0.046875 24.207031 0.0546875 23.8125 0.078125 L 5.59375 -23.015625 L 5.59375 -6.890625 C 5.59375 -5.347656 5.675781 -4.160156 5.84375 -3.328125 C 6.007812 -2.503906 6.378906 -1.914062 6.953125 -1.5625 C 7.523438 -1.21875 8.425781 -0.976562 9.65625 -0.84375 L 9.65625 0 C 9.125 -0.0507812 8.425781 -0.0820312 7.5625 -0.09375 C 6.695312 -0.113281 5.882812 -0.125 5.125 -0.125 C 4.476562 -0.125 3.816406 -0.113281 3.140625 -0.09375 C 2.472656 -0.0820312 1.914062 -0.0507812 1.46875 0 L 1.46875 -0.84375 C 2.363281 -0.976562 3.035156 -1.210938 3.484375 -1.546875 C 3.929688 -1.890625 4.234375 -2.445312 4.390625 -3.21875 C 4.546875 -3.988281 4.625 -5.046875 4.625 -6.390625 L 4.625 -25.28125 C 4.625 -26.320312 4.546875 -27.085938 4.390625 -27.578125 C 4.234375 -28.066406 3.921875 -28.398438 3.453125 -28.578125 C 2.992188 -28.765625 2.332031 -28.867188 1.46875 -28.890625 L 1.46875 -29.734375 C 1.914062 -29.703125 2.472656 -29.671875 3.140625 -29.640625 C 3.816406 -29.617188 4.476562 -29.609375 5.125 -29.609375 C 5.789062 -29.609375 6.429688 -29.617188 7.046875 -29.640625 C 7.671875 -29.671875 8.234375 -29.703125 8.734375 -29.734375 L 24.984375 -9.703125 L 24.984375 -22.84375 C 24.984375 -24.382812 24.898438 -25.566406 24.734375 -26.390625 C 24.566406 -27.222656 24.195312 -27.820312 23.625 -28.1875 C 23.050781 -28.550781 22.148438 -28.785156 20.921875 -28.890625 L 20.921875 -29.734375 C 21.453125 -29.703125 22.148438 -29.671875 23.015625 -29.640625 C 23.878906 -29.617188 24.691406 -29.609375 25.453125 -29.609375 C 26.117188 -29.609375 26.78125 -29.617188 27.4375 -29.640625 C 28.101562 -29.671875 28.660156 -29.703125 29.109375 -29.734375 Z M 29.109375 -29.734375 "/></g></g></g><g fill="#ffffff" fill-opacity="1"><g transform="translate(236.701202, 305.927586)"><g><path d="M 14.40625 -29.734375 L 14.40625 -28.890625 C 13.507812 -28.867188 12.828125 -28.765625 12.359375 -28.578125 C 11.898438 -28.398438 11.597656 -28.066406 11.453125 -27.578125 C 11.316406 -27.085938 11.25 -26.320312 11.25 -25.28125 L 11.25 -4.453125 C 11.25 -3.441406 11.328125 -2.679688 11.484375 -2.171875 C 11.640625 -1.671875 11.941406 -1.335938 12.390625 -1.171875 C 12.835938 -1.003906 13.507812 -0.894531 14.40625 -0.84375 L 14.40625 0 C 13.644531 -0.0507812 12.691406 -0.0820312 11.546875 -0.09375 C 10.398438 -0.113281 9.238281 -0.125 8.0625 -0.125 C 6.6875 -0.125 5.414062 -0.113281 4.25 -0.09375 C 3.09375 -0.0820312 2.148438 -0.0507812 1.421875 0 L 1.421875 -0.84375 C 2.316406 -0.894531 2.988281 -1.003906 3.4375 -1.171875 C 3.882812 -1.335938 4.1875 -1.671875 4.34375 -2.171875 C 4.5 -2.679688 4.578125 -3.441406 4.578125 -4.453125 L 4.578125 -25.28125 C 4.578125 -26.320312 4.5 -27.085938 4.34375 -27.578125 C 4.1875 -28.066406 3.878906 -28.398438 3.421875 -28.578125 C 2.960938 -28.765625 2.296875 -28.867188 1.421875 -28.890625 L 1.421875 -29.734375 C 2.148438 -29.703125 3.09375 -29.671875 4.25 -29.640625 C 5.414062 -29.617188 6.6875 -29.609375 8.0625 -29.609375 C 9.238281 -29.609375 10.398438 -29.617188 11.546875 -29.640625 C 12.691406 -29.671875 13.644531 -29.703125 14.40625 -29.734375 Z M 14.40625 -29.734375 "/></g></g></g><g fill="#ffffff" fill-opacity="1"><g transform="translate(253.753195, 305.927586)"><g><path d="M 23.890625 -29.734375 C 23.785156 -28.503906 23.710938 -27.3125 23.671875 -26.15625 C 23.628906 -25.007812 23.609375 -24.128906 23.609375 -23.515625 C 23.609375 -22.960938 23.617188 -22.429688 23.640625 -21.921875 C 23.671875 -21.421875 23.703125 -21 23.734375 -20.65625 L 22.765625 -20.65625 C 22.484375 -22.707031 22.046875 -24.328125 21.453125 -25.515625 C 20.867188 -26.703125 20.109375 -27.539062 19.171875 -28.03125 C 18.234375 -28.519531 17.132812 -28.765625 15.875 -28.765625 L 14.15625 -28.765625 C 13.34375 -28.765625 12.722656 -28.691406 12.296875 -28.546875 C 11.878906 -28.410156 11.597656 -28.132812 11.453125 -27.71875 C 11.316406 -27.300781 11.25 -26.65625 11.25 -25.78125 L 11.25 -3.953125 C 11.25 -3.078125 11.316406 -2.429688 11.453125 -2.015625 C 11.597656 -1.597656 11.878906 -1.316406 12.296875 -1.171875 C 12.722656 -1.035156 13.34375 -0.96875 14.15625 -0.96875 L 16.21875 -0.96875 C 17.476562 -0.96875 18.585938 -1.238281 19.546875 -1.78125 C 20.515625 -2.332031 21.34375 -3.265625 22.03125 -4.578125 C 22.71875 -5.890625 23.242188 -7.664062 23.609375 -9.90625 L 24.5625 -9.90625 C 24.476562 -9.007812 24.4375 -7.835938 24.4375 -6.390625 C 24.4375 -5.742188 24.453125 -4.832031 24.484375 -3.65625 C 24.515625 -2.476562 24.597656 -1.257812 24.734375 0 C 23.304688 -0.0507812 21.695312 -0.0820312 19.90625 -0.09375 C 18.113281 -0.113281 16.519531 -0.125 15.125 -0.125 C 14.414062 -0.125 13.515625 -0.125 12.421875 -0.125 C 11.335938 -0.125 10.164062 -0.113281 8.90625 -0.09375 C 7.644531 -0.0820312 6.367188 -0.0703125 5.078125 -0.0625 C 3.796875 -0.0507812 2.578125 -0.03125 1.421875 0 L 1.421875 -0.84375 C 2.316406 -0.894531 2.988281 -1.003906 3.4375 -1.171875 C 3.882812 -1.335938 4.1875 -1.671875 4.34375 -2.171875 C 4.5 -2.679688 4.578125 -3.441406 4.578125 -4.453125 L 4.578125 -25.28125 C 4.578125 -26.320312 4.5 -27.085938 4.34375 -27.578125 C 4.1875 -28.066406 3.878906 -28.398438 3.421875 -28.578125 C 2.960938 -28.765625 2.296875 -28.867188 1.421875 -28.890625 L 1.421875 -29.734375 C 2.578125 -29.703125 3.796875 -29.679688 5.078125 -29.671875 C 6.367188 -29.660156 7.644531 -29.644531 8.90625 -29.625 C 10.164062 -29.613281 11.335938 -29.609375 12.421875 -29.609375 C 13.515625 -29.609375 14.414062 -29.609375 15.125 -29.609375 C 16.40625 -29.609375 17.863281 -29.613281 19.5 -29.625 C 21.144531 -29.644531 22.609375 -29.679688 23.890625 -29.734375 Z M 17.34375 -15.375 C 17.34375 -15.375 17.34375 -15.234375 17.34375 -14.953125 C 17.34375 -14.671875 17.34375 -14.53125 17.34375 -14.53125 L 10 -14.53125 C 10 -14.53125 10 -14.671875 10 -14.953125 C 10 -15.234375 10 -15.375 10 -15.375 Z M 18.5625 -20.921875 C 18.445312 -19.316406 18.394531 -18.09375 18.40625 -17.25 C 18.425781 -16.414062 18.4375 -15.648438 18.4375 -14.953125 C 18.4375 -14.253906 18.445312 -13.484375 18.46875 -12.640625 C 18.5 -11.796875 18.570312 -10.578125 18.6875 -8.984375 L 17.71875 -8.984375 C 17.582031 -9.960938 17.320312 -10.875 16.9375 -11.71875 C 16.5625 -12.5625 16.023438 -13.238281 15.328125 -13.75 C 14.628906 -14.269531 13.71875 -14.53125 12.59375 -14.53125 L 12.59375 -15.375 C 13.4375 -15.375 14.148438 -15.546875 14.734375 -15.890625 C 15.328125 -16.242188 15.8125 -16.707031 16.1875 -17.28125 C 16.570312 -17.851562 16.875 -18.460938 17.09375 -19.109375 C 17.320312 -19.753906 17.488281 -20.359375 17.59375 -20.921875 Z M 18.5625 -20.921875 "/></g></g></g><g fill="#ffffff" fill-opacity="1"><g transform="translate(281.641186, 305.927586)"><g><path d="M 11.921875 -30.28125 C 13.578125 -30.28125 14.851562 -30.101562 15.75 -29.75 C 16.644531 -29.40625 17.414062 -29.035156 18.0625 -28.640625 C 18.394531 -28.441406 18.664062 -28.296875 18.875 -28.203125 C 19.082031 -28.109375 19.285156 -28.0625 19.484375 -28.0625 C 19.765625 -28.0625 19.96875 -28.210938 20.09375 -28.515625 C 20.21875 -28.828125 20.320312 -29.289062 20.40625 -29.90625 L 21.375 -29.90625 C 21.351562 -29.375 21.316406 -28.734375 21.265625 -27.984375 C 21.222656 -27.242188 21.195312 -26.269531 21.1875 -25.0625 C 21.175781 -23.863281 21.171875 -22.285156 21.171875 -20.328125 L 20.203125 -20.328125 C 20.085938 -21.785156 19.75 -23.195312 19.1875 -24.5625 C 18.632812 -25.9375 17.84375 -27.066406 16.8125 -27.953125 C 15.789062 -28.835938 14.539062 -29.28125 13.0625 -29.28125 C 11.71875 -29.28125 10.609375 -28.898438 9.734375 -28.140625 C 8.867188 -27.378906 8.4375 -26.328125 8.4375 -24.984375 C 8.4375 -23.867188 8.71875 -22.910156 9.28125 -22.109375 C 9.84375 -21.316406 10.660156 -20.539062 11.734375 -19.78125 C 12.816406 -19.019531 14.128906 -18.109375 15.671875 -17.046875 C 17.015625 -16.179688 18.21875 -15.3125 19.28125 -14.4375 C 20.34375 -13.570312 21.195312 -12.59375 21.84375 -11.5 C 22.488281 -10.414062 22.8125 -9.117188 22.8125 -7.609375 C 22.8125 -5.753906 22.328125 -4.222656 21.359375 -3.015625 C 20.390625 -1.816406 19.117188 -0.914062 17.546875 -0.3125 C 15.984375 0.289062 14.265625 0.59375 12.390625 0.59375 C 10.648438 0.59375 9.257812 0.421875 8.21875 0.078125 C 7.1875 -0.253906 6.320312 -0.601562 5.625 -0.96875 C 5.007812 -1.351562 4.535156 -1.546875 4.203125 -1.546875 C 3.921875 -1.546875 3.71875 -1.390625 3.59375 -1.078125 C 3.46875 -0.773438 3.363281 -0.316406 3.28125 0.296875 L 2.3125 0.296875 C 2.363281 -0.378906 2.394531 -1.164062 2.40625 -2.0625 C 2.425781 -2.957031 2.441406 -4.125 2.453125 -5.5625 C 2.472656 -7.007812 2.484375 -8.835938 2.484375 -11.046875 L 3.4375 -11.046875 C 3.550781 -9.203125 3.867188 -7.472656 4.390625 -5.859375 C 4.910156 -4.242188 5.707031 -2.945312 6.78125 -1.96875 C 7.863281 -0.988281 9.300781 -0.5 11.09375 -0.5 C 12.070312 -0.5 12.945312 -0.671875 13.71875 -1.015625 C 14.488281 -1.367188 15.109375 -1.894531 15.578125 -2.59375 C 16.054688 -3.300781 16.296875 -4.171875 16.296875 -5.203125 C 16.296875 -6.378906 16.019531 -7.398438 15.46875 -8.265625 C 14.925781 -9.140625 14.1875 -9.953125 13.25 -10.703125 C 12.3125 -11.460938 11.226562 -12.234375 10 -13.015625 C 8.675781 -13.890625 7.441406 -14.757812 6.296875 -15.625 C 5.148438 -16.488281 4.234375 -17.476562 3.546875 -18.59375 C 2.859375 -19.71875 2.515625 -21.050781 2.515625 -22.59375 C 2.515625 -24.351562 2.957031 -25.800781 3.84375 -26.9375 C 4.726562 -28.070312 5.890625 -28.910156 7.328125 -29.453125 C 8.765625 -30.003906 10.296875 -30.28125 11.921875 -30.28125 Z M 11.921875 -30.28125 "/></g></g></g><g fill="#ffffff" fill-opacity="1"><g transform="translate(129.203903, 102.07238)"><g><path d="M 1.421875 -29.734375 C 2.148438 -29.703125 3.101562 -29.671875 4.28125 -29.640625 C 5.457031 -29.617188 6.632812 -29.609375 7.8125 -29.609375 C 9.15625 -29.609375 10.457031 -29.617188 11.71875 -29.640625 C 12.976562 -29.671875 13.875 -29.6875 14.40625 -29.6875 C 17.875 -29.6875 20.46875 -29.070312 22.1875 -27.84375 C 23.914062 -26.613281 24.78125 -25.03125 24.78125 -23.09375 C 24.78125 -22.113281 24.484375 -21.117188 23.890625 -20.109375 C 23.304688 -19.109375 22.394531 -18.210938 21.15625 -17.421875 C 19.925781 -16.640625 18.332031 -16.066406 16.375 -15.703125 L 16.375 -15.625 C 19.007812 -15.425781 21.097656 -14.945312 22.640625 -14.1875 C 24.179688 -13.4375 25.285156 -12.53125 25.953125 -11.46875 C 26.628906 -10.40625 26.96875 -9.296875 26.96875 -8.140625 C 26.96875 -6.378906 26.503906 -4.894531 25.578125 -3.6875 C 24.648438 -2.488281 23.316406 -1.570312 21.578125 -0.9375 C 19.847656 -0.3125 17.78125 0 15.375 0 C 14.695312 0 13.726562 -0.0195312 12.46875 -0.0625 C 11.207031 -0.101562 9.679688 -0.125 7.890625 -0.125 C 6.660156 -0.125 5.457031 -0.113281 4.28125 -0.09375 C 3.101562 -0.0820312 2.148438 -0.0507812 1.421875 0 L 1.421875 -0.84375 C 2.316406 -0.894531 2.988281 -1.003906 3.4375 -1.171875 C 3.882812 -1.335938 4.1875 -1.671875 4.34375 -2.171875 C 4.5 -2.679688 4.578125 -3.441406 4.578125 -4.453125 L 4.578125 -25.28125 C 4.578125 -26.320312 4.5 -27.085938 4.34375 -27.578125 C 4.1875 -28.066406 3.878906 -28.398438 3.421875 -28.578125 C 2.960938 -28.765625 2.296875 -28.867188 1.421875 -28.890625 Z M 13.859375 -28.890625 C 12.765625 -28.890625 12.054688 -28.648438 11.734375 -28.171875 C 11.410156 -27.703125 11.25 -26.738281 11.25 -25.28125 L 11.25 -4.453125 C 11.25 -3.472656 11.328125 -2.726562 11.484375 -2.21875 C 11.640625 -1.71875 11.921875 -1.382812 12.328125 -1.21875 C 12.734375 -1.050781 13.34375 -0.96875 14.15625 -0.96875 C 16.164062 -0.96875 17.640625 -1.601562 18.578125 -2.875 C 19.515625 -4.144531 19.984375 -5.957031 19.984375 -8.3125 C 19.984375 -10.46875 19.445312 -12.132812 18.375 -13.3125 C 17.300781 -14.488281 15.515625 -15.078125 13.015625 -15.078125 L 9.453125 -15.078125 C 9.453125 -15.078125 9.453125 -15.195312 9.453125 -15.4375 C 9.453125 -15.675781 9.453125 -15.796875 9.453125 -15.796875 L 13.0625 -15.796875 C 14.375 -15.796875 15.378906 -16.109375 16.078125 -16.734375 C 16.785156 -17.367188 17.273438 -18.207031 17.546875 -19.25 C 17.828125 -20.300781 17.96875 -21.429688 17.96875 -22.640625 C 17.96875 -24.710938 17.644531 -26.269531 17 -27.3125 C 16.363281 -28.363281 15.316406 -28.890625 13.859375 -28.890625 Z M 13.859375 -28.890625 "/></g></g></g><g fill="#ffffff" fill-opacity="1"><g transform="translate(158.687907, 102.07238)"><g><path d="M 28.1875 -29.734375 L 28.1875 -28.890625 C 27.289062 -28.785156 26.609375 -28.554688 26.140625 -28.203125 C 25.679688 -27.847656 25.378906 -27.289062 25.234375 -26.53125 C 25.097656 -25.78125 25.03125 -24.722656 25.03125 -23.359375 L 25.03125 -12.21875 C 25.03125 -10.394531 24.90625 -8.726562 24.65625 -7.21875 C 24.40625 -5.707031 23.957031 -4.40625 23.3125 -3.3125 C 22.582031 -2.113281 21.515625 -1.160156 20.109375 -0.453125 C 18.710938 0.242188 16.9375 0.59375 14.78125 0.59375 C 13.5 0.59375 12.179688 0.441406 10.828125 0.140625 C 9.484375 -0.148438 8.28125 -0.703125 7.21875 -1.515625 C 6.320312 -2.265625 5.632812 -3.113281 5.15625 -4.0625 C 4.6875 -5.019531 4.367188 -6.148438 4.203125 -7.453125 C 4.035156 -8.753906 3.953125 -10.300781 3.953125 -12.09375 L 3.953125 -25.28125 C 3.953125 -26.320312 3.875 -27.085938 3.71875 -27.578125 C 3.5625 -28.066406 3.257812 -28.398438 2.8125 -28.578125 C 2.363281 -28.765625 1.691406 -28.867188 0.796875 -28.890625 L 0.796875 -29.734375 C 1.492188 -29.703125 2.4375 -29.671875 3.625 -29.640625 C 4.820312 -29.617188 6.0625 -29.609375 7.34375 -29.609375 C 8.632812 -29.609375 9.875 -29.617188 11.0625 -29.640625 C 12.257812 -29.671875 13.25 -29.703125 14.03125 -29.734375 L 14.03125 -28.890625 C 13.070312 -28.867188 12.347656 -28.765625 11.859375 -28.578125 C 11.367188 -28.398438 11.039062 -28.066406 10.875 -27.578125 C 10.707031 -27.085938 10.625 -26.320312 10.625 -25.28125 L 10.625 -9.453125 C 10.625 -8.046875 10.710938 -6.800781 10.890625 -5.71875 C 11.078125 -4.644531 11.382812 -3.75 11.8125 -3.03125 C 12.25 -2.320312 12.84375 -1.785156 13.59375 -1.421875 C 14.351562 -1.054688 15.296875 -0.875 16.421875 -0.875 C 18.378906 -0.875 19.910156 -1.335938 21.015625 -2.265625 C 22.128906 -3.191406 22.914062 -4.472656 23.375 -6.109375 C 23.832031 -7.742188 24.0625 -9.628906 24.0625 -11.765625 L 24.0625 -22.84375 C 24.0625 -24.382812 23.960938 -25.566406 23.765625 -26.390625 C 23.578125 -27.222656 23.191406 -27.820312 22.609375 -28.1875 C 22.035156 -28.550781 21.160156 -28.785156 19.984375 -28.890625 L 19.984375 -29.734375 C 20.523438 -29.703125 21.226562 -29.671875 22.09375 -29.640625 C 22.957031 -29.617188 23.769531 -29.609375 24.53125 -29.609375 C 25.195312 -29.609375 25.859375 -29.617188 26.515625 -29.640625 C 27.179688 -29.671875 27.738281 -29.703125 28.1875 -29.734375 Z M 28.1875 -29.734375 "/></g></g></g><g fill="#ffffff" fill-opacity="1"><g transform="translate(188.885908, 102.07238)"><g><path d="M 14.65625 -29.734375 L 14.65625 -28.890625 C 13.707031 -28.867188 12.988281 -28.765625 12.5 -28.578125 C 12.007812 -28.398438 11.675781 -28.066406 11.5 -27.578125 C 11.332031 -27.085938 11.25 -26.320312 11.25 -25.28125 L 11.25 -3.953125 C 11.25 -3.078125 11.3125 -2.429688 11.4375 -2.015625 C 11.570312 -1.597656 11.828125 -1.316406 12.203125 -1.171875 C 12.578125 -1.035156 13.144531 -0.96875 13.90625 -0.96875 L 15.953125 -0.96875 C 16.910156 -0.96875 17.804688 -1.191406 18.640625 -1.640625 C 19.484375 -2.085938 20.238281 -2.722656 20.90625 -3.546875 C 21.582031 -4.367188 22.144531 -5.351562 22.59375 -6.5 C 23.039062 -7.65625 23.378906 -8.929688 23.609375 -10.328125 L 24.5625 -10.328125 C 24.476562 -9.378906 24.4375 -8.148438 24.4375 -6.640625 C 24.4375 -5.992188 24.453125 -5.050781 24.484375 -3.8125 C 24.515625 -2.582031 24.597656 -1.3125 24.734375 0 C 23.304688 -0.0507812 21.695312 -0.0820312 19.90625 -0.09375 C 18.113281 -0.113281 16.519531 -0.125 15.125 -0.125 C 14.414062 -0.125 13.515625 -0.125 12.421875 -0.125 C 11.335938 -0.125 10.164062 -0.113281 8.90625 -0.09375 C 7.644531 -0.0820312 6.367188 -0.0703125 5.078125 -0.0625 C 3.796875 -0.0507812 2.578125 -0.03125 1.421875 0 L 1.421875 -0.84375 C 2.316406 -0.894531 2.988281 -1.003906 3.4375 -1.171875 C 3.882812 -1.335938 4.1875 -1.671875 4.34375 -2.171875 C 4.5 -2.679688 4.578125 -3.441406 4.578125 -4.453125 L 4.578125 -25.28125 C 4.578125 -26.320312 4.5 -27.085938 4.34375 -27.578125 C 4.1875 -28.066406 3.878906 -28.398438 3.421875 -28.578125 C 2.960938 -28.765625 2.296875 -28.867188 1.421875 -28.890625 L 1.421875 -29.734375 C 2.128906 -29.703125 3.078125 -29.671875 4.265625 -29.640625 C 5.453125 -29.617188 6.71875 -29.609375 8.0625 -29.609375 C 9.289062 -29.609375 10.5 -29.617188 11.6875 -29.640625 C 12.882812 -29.671875 13.875 -29.703125 14.65625 -29.734375 Z M 14.65625 -29.734375 "/></g></g></g><g fill="#ffffff" fill-opacity="1"><g transform="translate(215.807909, 102.07238)"><g><path d="M 28.9375 -29.734375 L 28.9375 -28.9375 C 28.039062 -28.738281 27.082031 -28.34375 26.0625 -27.75 C 25.039062 -27.164062 23.96875 -26.21875 22.84375 -24.90625 L 14.953125 -15.5 L 17.390625 -18.984375 L 27.390625 -3.40625 C 27.773438 -2.757812 28.191406 -2.238281 28.640625 -1.84375 C 29.085938 -1.457031 29.675781 -1.125 30.40625 -0.84375 L 30.40625 0 C 29.425781 -0.0507812 28.332031 -0.0820312 27.125 -0.09375 C 25.925781 -0.113281 24.835938 -0.125 23.859375 -0.125 C 23.265625 -0.125 22.546875 -0.113281 21.703125 -0.09375 C 20.867188 -0.0820312 19.804688 -0.0507812 18.515625 0 L 18.515625 -0.84375 C 19.671875 -0.894531 20.363281 -1.050781 20.59375 -1.3125 C 20.832031 -1.582031 20.726562 -2.054688 20.28125 -2.734375 L 14.203125 -12.59375 C 13.804688 -13.238281 13.453125 -13.722656 13.140625 -14.046875 C 12.835938 -14.367188 12.53125 -14.59375 12.21875 -14.71875 C 11.914062 -14.84375 11.507812 -14.921875 11 -14.953125 L 11 -15.828125 C 12.238281 -15.859375 13.335938 -16.195312 14.296875 -16.84375 C 15.265625 -17.488281 16.320312 -18.46875 17.46875 -19.78125 L 19.953125 -22.765625 C 21.015625 -24.023438 21.632812 -25.109375 21.8125 -26.015625 C 22 -26.929688 21.816406 -27.640625 21.265625 -28.140625 C 20.722656 -28.640625 19.894531 -28.90625 18.78125 -28.9375 L 18.78125 -29.734375 C 19.476562 -29.703125 20.140625 -29.679688 20.765625 -29.671875 C 21.398438 -29.660156 22.054688 -29.644531 22.734375 -29.625 C 23.421875 -29.613281 24.171875 -29.609375 24.984375 -29.609375 C 25.796875 -29.609375 26.53125 -29.617188 27.1875 -29.640625 C 27.851562 -29.671875 28.4375 -29.703125 28.9375 -29.734375 Z M 14.40625 -29.734375 L 14.40625 -28.890625 C 13.507812 -28.867188 12.828125 -28.765625 12.359375 -28.578125 C 11.898438 -28.398438 11.597656 -28.066406 11.453125 -27.578125 C 11.316406 -27.085938 11.25 -26.320312 11.25 -25.28125 L 11.25 -4.453125 C 11.25 -3.441406 11.328125 -2.679688 11.484375 -2.171875 C 11.640625 -1.671875 11.941406 -1.335938 12.390625 -1.171875 C 12.835938 -1.003906 13.507812 -0.894531 14.40625 -0.84375 L 14.40625 0 C 13.644531 -0.0507812 12.691406 -0.0820312 11.546875 -0.09375 C 10.398438 -0.113281 9.238281 -0.125 8.0625 -0.125 C 6.71875 -0.125 5.453125 -0.113281 4.265625 -0.09375 C 3.078125 -0.0820312 2.128906 -0.0507812 1.421875 0 L 1.421875 -0.84375 C 2.316406 -0.894531 2.988281 -1.003906 3.4375 -1.171875 C 3.882812 -1.335938 4.1875 -1.671875 4.34375 -2.171875 C 4.5 -2.679688 4.578125 -3.441406 4.578125 -4.453125 L 4.578125 -25.28125 C 4.578125 -26.320312 4.5 -27.085938 4.34375 -27.578125 C 4.1875 -28.066406 3.878906 -28.398438 3.421875 -28.578125 C 2.960938 -28.765625 2.296875 -28.867188 1.421875 -28.890625 L 1.421875 -29.734375 C 2.128906 -29.703125 3.078125 -29.671875 4.265625 -29.640625 C 5.453125 -29.617188 6.71875 -29.609375 8.0625 -29.609375 C 9.238281 -29.609375 10.398438 -29.617188 11.546875 -29.640625 C 12.691406 -29.671875 13.644531 -29.703125 14.40625 -29.734375 Z M 14.40625 -29.734375 "/></g></g></g></svg>